<mxfile host="app.diagrams.net" modified="2023-12-05T10:13:57.049Z" agent="Mozilla/5.0 (Windows NT 10.0; Win64; x64) AppleWebKit/537.36 (KHTML, like Gecko) Chrome/119.0.0.0 Safari/537.36" etag="EQiADdmzmKmbXXTWkhkk" version="22.1.5" type="device">
  <diagram name="Page-1" id="94LBMi_QMn9_HoXm2CBJ">
    <mxGraphModel dx="885" dy="1122" grid="1" gridSize="10" guides="1" tooltips="1" connect="1" arrows="1" fold="1" page="1" pageScale="1" pageWidth="850" pageHeight="1100" math="0" shadow="0">
      <root>
        <mxCell id="0" />
        <mxCell id="1" parent="0" />
        <mxCell id="3Ar2WPhDcIFh1BwXJXv_-1" value="&lt;u&gt;employee_id&lt;/u&gt;" style="ellipse;whiteSpace=wrap;html=1;" vertex="1" parent="1">
          <mxGeometry x="1960" y="210" width="100" height="50" as="geometry" />
        </mxCell>
        <mxCell id="3Ar2WPhDcIFh1BwXJXv_-2" style="rounded=0;orthogonalLoop=1;jettySize=auto;html=1;exitX=0.25;exitY=1;exitDx=0;exitDy=0;entryX=1;entryY=0.5;entryDx=0;entryDy=0;endArrow=none;endFill=0;" edge="1" parent="1" source="3Ar2WPhDcIFh1BwXJXv_-4" target="3Ar2WPhDcIFh1BwXJXv_-1">
          <mxGeometry relative="1" as="geometry" />
        </mxCell>
        <mxCell id="3Ar2WPhDcIFh1BwXJXv_-3" style="edgeStyle=orthogonalEdgeStyle;rounded=0;orthogonalLoop=1;jettySize=auto;html=1;exitX=1;exitY=0.5;exitDx=0;exitDy=0;endArrow=none;endFill=0;entryX=0;entryY=0.5;entryDx=0;entryDy=0;" edge="1" parent="1" source="3Ar2WPhDcIFh1BwXJXv_-4" target="3Ar2WPhDcIFh1BwXJXv_-114">
          <mxGeometry relative="1" as="geometry">
            <mxPoint x="2590" y="270" as="targetPoint" />
          </mxGeometry>
        </mxCell>
        <mxCell id="3Ar2WPhDcIFh1BwXJXv_-4" value="Employee" style="rounded=0;whiteSpace=wrap;html=1;" vertex="1" parent="1">
          <mxGeometry x="2112.25" y="245" width="230" height="50" as="geometry" />
        </mxCell>
        <mxCell id="3Ar2WPhDcIFh1BwXJXv_-5" style="rounded=0;orthogonalLoop=1;jettySize=auto;html=1;exitX=0.5;exitY=0;exitDx=0;exitDy=0;endArrow=none;endFill=0;" edge="1" parent="1" source="3Ar2WPhDcIFh1BwXJXv_-6">
          <mxGeometry relative="1" as="geometry">
            <mxPoint x="2227.25" y="245" as="targetPoint" />
          </mxGeometry>
        </mxCell>
        <mxCell id="3Ar2WPhDcIFh1BwXJXv_-6" value="name" style="ellipse;whiteSpace=wrap;html=1;" vertex="1" parent="1">
          <mxGeometry x="2177.25" y="115" width="100" height="50" as="geometry" />
        </mxCell>
        <mxCell id="3Ar2WPhDcIFh1BwXJXv_-7" style="rounded=0;orthogonalLoop=1;jettySize=auto;html=1;exitX=0.5;exitY=0;exitDx=0;exitDy=0;endArrow=none;endFill=0;entryX=0.75;entryY=0;entryDx=0;entryDy=0;" edge="1" parent="1" source="3Ar2WPhDcIFh1BwXJXv_-8" target="3Ar2WPhDcIFh1BwXJXv_-4">
          <mxGeometry relative="1" as="geometry">
            <mxPoint x="2290" y="240" as="targetPoint" />
          </mxGeometry>
        </mxCell>
        <mxCell id="3Ar2WPhDcIFh1BwXJXv_-8" value="job title" style="ellipse;whiteSpace=wrap;html=1;" vertex="1" parent="1">
          <mxGeometry x="2242.25" y="165" width="100" height="50" as="geometry" />
        </mxCell>
        <mxCell id="3Ar2WPhDcIFh1BwXJXv_-13" style="rounded=0;orthogonalLoop=1;jettySize=auto;html=1;exitX=1;exitY=0;exitDx=0;exitDy=0;entryX=0.5;entryY=1;entryDx=0;entryDy=0;endArrow=none;endFill=0;" edge="1" parent="1" source="3Ar2WPhDcIFh1BwXJXv_-6" target="3Ar2WPhDcIFh1BwXJXv_-14">
          <mxGeometry relative="1" as="geometry">
            <mxPoint x="2272.75" y="-45" as="targetPoint" />
          </mxGeometry>
        </mxCell>
        <mxCell id="3Ar2WPhDcIFh1BwXJXv_-14" value="last name" style="ellipse;whiteSpace=wrap;html=1;" vertex="1" parent="1">
          <mxGeometry x="2252.25" y="10" width="100" height="50" as="geometry" />
        </mxCell>
        <mxCell id="3Ar2WPhDcIFh1BwXJXv_-15" style="rounded=0;orthogonalLoop=1;jettySize=auto;html=1;entryX=0;entryY=0;entryDx=0;entryDy=0;endArrow=none;endFill=0;exitX=0.676;exitY=0.98;exitDx=0;exitDy=0;exitPerimeter=0;" edge="1" parent="1" source="3Ar2WPhDcIFh1BwXJXv_-16" target="3Ar2WPhDcIFh1BwXJXv_-6">
          <mxGeometry relative="1" as="geometry">
            <mxPoint x="2172.75" y="-45" as="targetPoint" />
            <mxPoint x="2169.75" y="65" as="sourcePoint" />
          </mxGeometry>
        </mxCell>
        <mxCell id="3Ar2WPhDcIFh1BwXJXv_-16" value="first name" style="ellipse;whiteSpace=wrap;html=1;" vertex="1" parent="1">
          <mxGeometry x="2102.25" y="10" width="100" height="50" as="geometry" />
        </mxCell>
        <mxCell id="3Ar2WPhDcIFh1BwXJXv_-17" value="email address" style="ellipse;whiteSpace=wrap;html=1;" vertex="1" parent="1">
          <mxGeometry x="2342.25" y="70" width="140" height="80" as="geometry" />
        </mxCell>
        <mxCell id="3Ar2WPhDcIFh1BwXJXv_-18" style="rounded=0;orthogonalLoop=1;jettySize=auto;html=1;exitX=0;exitY=0;exitDx=0;exitDy=0;entryX=1;entryY=0.25;entryDx=0;entryDy=0;endArrow=none;endFill=0;" edge="1" parent="1" source="3Ar2WPhDcIFh1BwXJXv_-19" target="3Ar2WPhDcIFh1BwXJXv_-4">
          <mxGeometry relative="1" as="geometry" />
        </mxCell>
        <mxCell id="3Ar2WPhDcIFh1BwXJXv_-19" value="phone number" style="ellipse;whiteSpace=wrap;html=1;" vertex="1" parent="1">
          <mxGeometry x="2390" y="170" width="100" height="50" as="geometry" />
        </mxCell>
        <mxCell id="3Ar2WPhDcIFh1BwXJXv_-20" value="email address" style="ellipse;whiteSpace=wrap;html=1;" vertex="1" parent="1">
          <mxGeometry x="2362.25" y="85" width="100" height="50" as="geometry" />
        </mxCell>
        <mxCell id="3Ar2WPhDcIFh1BwXJXv_-21" style="rounded=0;orthogonalLoop=1;jettySize=auto;html=1;exitX=0;exitY=1;exitDx=0;exitDy=0;entryX=0.956;entryY=-0.04;entryDx=0;entryDy=0;entryPerimeter=0;endArrow=none;endFill=0;" edge="1" parent="1" source="3Ar2WPhDcIFh1BwXJXv_-17" target="3Ar2WPhDcIFh1BwXJXv_-4">
          <mxGeometry relative="1" as="geometry" />
        </mxCell>
        <mxCell id="3Ar2WPhDcIFh1BwXJXv_-22" style="rounded=0;orthogonalLoop=1;jettySize=auto;html=1;exitX=0.25;exitY=0;exitDx=0;exitDy=0;entryX=1;entryY=1;entryDx=0;entryDy=0;endArrow=none;endFill=0;" edge="1" parent="1" source="3Ar2WPhDcIFh1BwXJXv_-4" target="3Ar2WPhDcIFh1BwXJXv_-23">
          <mxGeometry relative="1" as="geometry">
            <mxPoint x="2077.25" y="-15" as="targetPoint" />
          </mxGeometry>
        </mxCell>
        <mxCell id="3Ar2WPhDcIFh1BwXJXv_-23" value="date of birth" style="ellipse;whiteSpace=wrap;html=1;" vertex="1" parent="1">
          <mxGeometry x="1979.75" y="150" width="107" height="50" as="geometry" />
        </mxCell>
        <mxCell id="3Ar2WPhDcIFh1BwXJXv_-24" style="rounded=0;orthogonalLoop=1;jettySize=auto;html=1;exitX=0.5;exitY=1;exitDx=0;exitDy=0;endArrow=none;endFill=0;" edge="1" parent="1" source="3Ar2WPhDcIFh1BwXJXv_-25" target="3Ar2WPhDcIFh1BwXJXv_-4">
          <mxGeometry relative="1" as="geometry" />
        </mxCell>
        <mxCell id="3Ar2WPhDcIFh1BwXJXv_-25" value="age" style="ellipse;whiteSpace=wrap;html=1;dashed=1;" vertex="1" parent="1">
          <mxGeometry x="2027.25" y="75" width="100" height="50" as="geometry" />
        </mxCell>
        <mxCell id="3Ar2WPhDcIFh1BwXJXv_-27" value="Instructor" style="rounded=0;whiteSpace=wrap;html=1;" vertex="1" parent="1">
          <mxGeometry x="2068.62" y="410" width="80" height="40" as="geometry" />
        </mxCell>
        <mxCell id="3Ar2WPhDcIFh1BwXJXv_-28" value="Other" style="rounded=0;whiteSpace=wrap;html=1;" vertex="1" parent="1">
          <mxGeometry x="2188.13" y="410" width="78.25" height="40" as="geometry" />
        </mxCell>
        <mxCell id="3Ar2WPhDcIFh1BwXJXv_-29" value="Administrative position" style="rounded=0;whiteSpace=wrap;html=1;" vertex="1" parent="1">
          <mxGeometry x="2306.75" y="410" width="83.25" height="40" as="geometry" />
        </mxCell>
        <mxCell id="3Ar2WPhDcIFh1BwXJXv_-30" value="D" style="ellipse;whiteSpace=wrap;html=1;aspect=fixed;" vertex="1" parent="1">
          <mxGeometry x="2207.25" y="330" width="40" height="40" as="geometry" />
        </mxCell>
        <mxCell id="3Ar2WPhDcIFh1BwXJXv_-32" value="" style="endArrow=none;html=1;rounded=0;entryX=0.5;entryY=0;entryDx=0;entryDy=0;exitX=0.5;exitY=1;exitDx=0;exitDy=0;shape=link;" edge="1" parent="1" source="3Ar2WPhDcIFh1BwXJXv_-4" target="3Ar2WPhDcIFh1BwXJXv_-30">
          <mxGeometry width="50" height="50" relative="1" as="geometry">
            <mxPoint x="2230" y="390" as="sourcePoint" />
            <mxPoint x="2280" y="340" as="targetPoint" />
          </mxGeometry>
        </mxCell>
        <mxCell id="3Ar2WPhDcIFh1BwXJXv_-33" value="" style="endArrow=none;html=1;rounded=0;entryX=0;entryY=0.5;entryDx=0;entryDy=0;exitX=1;exitY=0;exitDx=0;exitDy=0;" edge="1" parent="1" source="3Ar2WPhDcIFh1BwXJXv_-27" target="3Ar2WPhDcIFh1BwXJXv_-30">
          <mxGeometry width="50" height="50" relative="1" as="geometry">
            <mxPoint x="2230" y="430" as="sourcePoint" />
            <mxPoint x="2280" y="380" as="targetPoint" />
          </mxGeometry>
        </mxCell>
        <mxCell id="3Ar2WPhDcIFh1BwXJXv_-34" value="" style="endArrow=none;html=1;rounded=0;entryX=0;entryY=0;entryDx=0;entryDy=0;exitX=1;exitY=0.5;exitDx=0;exitDy=0;" edge="1" parent="1" source="3Ar2WPhDcIFh1BwXJXv_-30" target="3Ar2WPhDcIFh1BwXJXv_-29">
          <mxGeometry width="50" height="50" relative="1" as="geometry">
            <mxPoint x="2159" y="420" as="sourcePoint" />
            <mxPoint x="2217" y="360" as="targetPoint" />
          </mxGeometry>
        </mxCell>
        <mxCell id="3Ar2WPhDcIFh1BwXJXv_-35" value="" style="endArrow=none;html=1;rounded=0;entryX=0.5;entryY=1;entryDx=0;entryDy=0;exitX=0.5;exitY=0;exitDx=0;exitDy=0;" edge="1" parent="1" source="3Ar2WPhDcIFh1BwXJXv_-28" target="3Ar2WPhDcIFh1BwXJXv_-30">
          <mxGeometry width="50" height="50" relative="1" as="geometry">
            <mxPoint x="2169" y="430" as="sourcePoint" />
            <mxPoint x="2227" y="370" as="targetPoint" />
          </mxGeometry>
        </mxCell>
        <mxCell id="3Ar2WPhDcIFh1BwXJXv_-41" value="&lt;b&gt;Has&lt;/b&gt;" style="rhombus;whiteSpace=wrap;html=1;" vertex="1" parent="1">
          <mxGeometry x="2082.93" y="480" width="51.38" height="60" as="geometry" />
        </mxCell>
        <mxCell id="3Ar2WPhDcIFh1BwXJXv_-42" value="License" style="rounded=0;whiteSpace=wrap;html=1;" vertex="1" parent="1">
          <mxGeometry x="2068.62" y="560" width="80" height="40" as="geometry" />
        </mxCell>
        <mxCell id="3Ar2WPhDcIFh1BwXJXv_-43" value="" style="endArrow=none;html=1;rounded=0;exitX=0.5;exitY=0;exitDx=0;exitDy=0;entryX=0.5;entryY=1;entryDx=0;entryDy=0;" edge="1" parent="1" source="3Ar2WPhDcIFh1BwXJXv_-41" target="3Ar2WPhDcIFh1BwXJXv_-27">
          <mxGeometry width="50" height="50" relative="1" as="geometry">
            <mxPoint x="2230" y="520" as="sourcePoint" />
            <mxPoint x="2280" y="470" as="targetPoint" />
          </mxGeometry>
        </mxCell>
        <mxCell id="3Ar2WPhDcIFh1BwXJXv_-44" value="" style="endArrow=none;html=1;rounded=0;exitX=0.5;exitY=0;exitDx=0;exitDy=0;entryX=0.5;entryY=1;entryDx=0;entryDy=0;" edge="1" parent="1" source="3Ar2WPhDcIFh1BwXJXv_-42" target="3Ar2WPhDcIFh1BwXJXv_-41">
          <mxGeometry width="50" height="50" relative="1" as="geometry">
            <mxPoint x="2119" y="490" as="sourcePoint" />
            <mxPoint x="2119" y="460" as="targetPoint" />
          </mxGeometry>
        </mxCell>
        <mxCell id="3Ar2WPhDcIFh1BwXJXv_-45" value="Type" style="ellipse;whiteSpace=wrap;html=1;" vertex="1" parent="1">
          <mxGeometry x="2148.62" y="525" width="50" height="35" as="geometry" />
        </mxCell>
        <mxCell id="3Ar2WPhDcIFh1BwXJXv_-46" value="&lt;u&gt;EmployeeID&lt;/u&gt;" style="ellipse;whiteSpace=wrap;html=1;" vertex="1" parent="1">
          <mxGeometry x="1998.62" y="525" width="70" height="35" as="geometry" />
        </mxCell>
        <mxCell id="3Ar2WPhDcIFh1BwXJXv_-47" value="" style="endArrow=none;html=1;rounded=0;entryX=0.5;entryY=1;entryDx=0;entryDy=0;exitX=0;exitY=0.5;exitDx=0;exitDy=0;" edge="1" parent="1" source="3Ar2WPhDcIFh1BwXJXv_-42" target="3Ar2WPhDcIFh1BwXJXv_-46">
          <mxGeometry width="50" height="50" relative="1" as="geometry">
            <mxPoint x="2230" y="540" as="sourcePoint" />
            <mxPoint x="2280" y="490" as="targetPoint" />
          </mxGeometry>
        </mxCell>
        <mxCell id="3Ar2WPhDcIFh1BwXJXv_-48" value="" style="endArrow=none;html=1;rounded=0;entryX=1;entryY=0.5;entryDx=0;entryDy=0;exitX=1;exitY=1;exitDx=0;exitDy=0;" edge="1" parent="1" source="3Ar2WPhDcIFh1BwXJXv_-45" target="3Ar2WPhDcIFh1BwXJXv_-42">
          <mxGeometry width="50" height="50" relative="1" as="geometry">
            <mxPoint x="2079" y="590" as="sourcePoint" />
            <mxPoint x="2044" y="570" as="targetPoint" />
          </mxGeometry>
        </mxCell>
        <mxCell id="3Ar2WPhDcIFh1BwXJXv_-49" value="Lesson" style="rounded=0;whiteSpace=wrap;html=1;" vertex="1" parent="1">
          <mxGeometry x="1683.84" y="590" width="230" height="50" as="geometry" />
        </mxCell>
        <mxCell id="3Ar2WPhDcIFh1BwXJXv_-50" value="Theoretical Class" style="rounded=0;whiteSpace=wrap;html=1;" vertex="1" parent="1">
          <mxGeometry x="1640.2" y="755" width="80" height="40" as="geometry" />
        </mxCell>
        <mxCell id="3Ar2WPhDcIFh1BwXJXv_-52" value="Practical Class" style="rounded=0;whiteSpace=wrap;html=1;" vertex="1" parent="1">
          <mxGeometry x="1874.2" y="755" width="83.25" height="40" as="geometry" />
        </mxCell>
        <mxCell id="3Ar2WPhDcIFh1BwXJXv_-53" value="D" style="ellipse;whiteSpace=wrap;html=1;aspect=fixed;" vertex="1" parent="1">
          <mxGeometry x="1778.8300000000002" y="675" width="40" height="40" as="geometry" />
        </mxCell>
        <mxCell id="3Ar2WPhDcIFh1BwXJXv_-54" value="" style="endArrow=none;html=1;rounded=0;entryX=0.5;entryY=0;entryDx=0;entryDy=0;exitX=0.5;exitY=1;exitDx=0;exitDy=0;shape=link;" edge="1" parent="1" target="3Ar2WPhDcIFh1BwXJXv_-53" source="3Ar2WPhDcIFh1BwXJXv_-49">
          <mxGeometry width="50" height="50" relative="1" as="geometry">
            <mxPoint x="1798.5800000000002" y="640" as="sourcePoint" />
            <mxPoint x="1851.5800000000002" y="685" as="targetPoint" />
          </mxGeometry>
        </mxCell>
        <mxCell id="3Ar2WPhDcIFh1BwXJXv_-55" value="" style="endArrow=none;html=1;rounded=0;entryX=0;entryY=0.5;entryDx=0;entryDy=0;exitX=1;exitY=0;exitDx=0;exitDy=0;" edge="1" parent="1" source="3Ar2WPhDcIFh1BwXJXv_-50" target="3Ar2WPhDcIFh1BwXJXv_-53">
          <mxGeometry width="50" height="50" relative="1" as="geometry">
            <mxPoint x="1801.5800000000002" y="775" as="sourcePoint" />
            <mxPoint x="1851.5800000000002" y="725" as="targetPoint" />
          </mxGeometry>
        </mxCell>
        <mxCell id="3Ar2WPhDcIFh1BwXJXv_-56" value="" style="endArrow=none;html=1;rounded=0;entryX=0;entryY=0;entryDx=0;entryDy=0;exitX=1;exitY=0.5;exitDx=0;exitDy=0;" edge="1" parent="1" source="3Ar2WPhDcIFh1BwXJXv_-53" target="3Ar2WPhDcIFh1BwXJXv_-52">
          <mxGeometry width="50" height="50" relative="1" as="geometry">
            <mxPoint x="1730.5800000000002" y="765" as="sourcePoint" />
            <mxPoint x="1788.5800000000002" y="705" as="targetPoint" />
          </mxGeometry>
        </mxCell>
        <mxCell id="3Ar2WPhDcIFh1BwXJXv_-58" value="Classroom" style="ellipse;whiteSpace=wrap;html=1;" vertex="1" parent="1">
          <mxGeometry x="1600.2" y="700" width="60" height="40" as="geometry" />
        </mxCell>
        <mxCell id="3Ar2WPhDcIFh1BwXJXv_-59" value="Time" style="ellipse;whiteSpace=wrap;html=1;" vertex="1" parent="1">
          <mxGeometry x="1860" y="545" width="60" height="40" as="geometry" />
        </mxCell>
        <mxCell id="3Ar2WPhDcIFh1BwXJXv_-60" value="Date" style="ellipse;whiteSpace=wrap;html=1;" vertex="1" parent="1">
          <mxGeometry x="1814.1999999999998" y="505" width="60" height="40" as="geometry" />
        </mxCell>
        <mxCell id="3Ar2WPhDcIFh1BwXJXv_-61" value="Duration" style="ellipse;whiteSpace=wrap;html=1;dashed=1;" vertex="1" parent="1">
          <mxGeometry x="1700" y="520" width="60" height="40" as="geometry" />
        </mxCell>
        <mxCell id="3Ar2WPhDcIFh1BwXJXv_-62" value="Topic" style="ellipse;whiteSpace=wrap;html=1;" vertex="1" parent="1">
          <mxGeometry x="1670.2" y="700" width="60" height="40" as="geometry" />
        </mxCell>
        <mxCell id="3Ar2WPhDcIFh1BwXJXv_-63" value="Max capacity" style="ellipse;whiteSpace=wrap;html=1;" vertex="1" parent="1">
          <mxGeometry x="1683.8400000000001" y="820" width="60" height="40" as="geometry" />
        </mxCell>
        <mxCell id="3Ar2WPhDcIFh1BwXJXv_-68" value="Vehicle" style="ellipse;whiteSpace=wrap;html=1;" vertex="1" parent="1">
          <mxGeometry x="1897.45" y="800" width="60" height="40" as="geometry" />
        </mxCell>
        <mxCell id="3Ar2WPhDcIFh1BwXJXv_-69" value="Evaluation" style="ellipse;whiteSpace=wrap;html=1;" vertex="1" parent="1">
          <mxGeometry x="1967.25" y="790" width="60" height="40" as="geometry" />
        </mxCell>
        <mxCell id="3Ar2WPhDcIFh1BwXJXv_-70" value="&lt;u&gt;student_id&lt;/u&gt;" style="ellipse;whiteSpace=wrap;html=1;" vertex="1" parent="1">
          <mxGeometry x="1101.5" y="710" width="100" height="50" as="geometry" />
        </mxCell>
        <mxCell id="3Ar2WPhDcIFh1BwXJXv_-71" style="rounded=0;orthogonalLoop=1;jettySize=auto;html=1;exitX=0.5;exitY=1;exitDx=0;exitDy=0;entryX=0.5;entryY=0;entryDx=0;entryDy=0;endArrow=none;endFill=0;" edge="1" parent="1" source="3Ar2WPhDcIFh1BwXJXv_-73" target="3Ar2WPhDcIFh1BwXJXv_-70">
          <mxGeometry relative="1" as="geometry" />
        </mxCell>
        <mxCell id="3Ar2WPhDcIFh1BwXJXv_-72" style="edgeStyle=orthogonalEdgeStyle;rounded=0;orthogonalLoop=1;jettySize=auto;html=1;exitX=1;exitY=0.5;exitDx=0;exitDy=0;entryX=0;entryY=0.5;entryDx=0;entryDy=0;endArrow=none;endFill=0;" edge="1" parent="1" source="3Ar2WPhDcIFh1BwXJXv_-73" target="3Ar2WPhDcIFh1BwXJXv_-91">
          <mxGeometry relative="1" as="geometry">
            <mxPoint x="1342" y="615" as="targetPoint" />
          </mxGeometry>
        </mxCell>
        <mxCell id="3Ar2WPhDcIFh1BwXJXv_-73" value="Student" style="rounded=0;whiteSpace=wrap;html=1;" vertex="1" parent="1">
          <mxGeometry x="1026.5" y="590" width="230" height="50" as="geometry" />
        </mxCell>
        <mxCell id="3Ar2WPhDcIFh1BwXJXv_-74" style="rounded=0;orthogonalLoop=1;jettySize=auto;html=1;exitX=0.5;exitY=0;exitDx=0;exitDy=0;entryX=0.75;entryY=1;entryDx=0;entryDy=0;endArrow=none;endFill=0;" edge="1" parent="1" source="3Ar2WPhDcIFh1BwXJXv_-75" target="3Ar2WPhDcIFh1BwXJXv_-73">
          <mxGeometry relative="1" as="geometry" />
        </mxCell>
        <mxCell id="3Ar2WPhDcIFh1BwXJXv_-75" value="name" style="ellipse;whiteSpace=wrap;html=1;" vertex="1" parent="1">
          <mxGeometry x="1231.5" y="710" width="100" height="50" as="geometry" />
        </mxCell>
        <mxCell id="3Ar2WPhDcIFh1BwXJXv_-78" style="rounded=0;orthogonalLoop=1;jettySize=auto;html=1;exitX=0.5;exitY=0;exitDx=0;exitDy=0;entryX=1;entryY=0.5;entryDx=0;entryDy=0;endArrow=none;endFill=0;" edge="1" parent="1" source="3Ar2WPhDcIFh1BwXJXv_-79" target="3Ar2WPhDcIFh1BwXJXv_-75">
          <mxGeometry relative="1" as="geometry">
            <mxPoint x="1279" y="720" as="targetPoint" />
          </mxGeometry>
        </mxCell>
        <mxCell id="3Ar2WPhDcIFh1BwXJXv_-79" value="last name" style="ellipse;whiteSpace=wrap;html=1;" vertex="1" parent="1">
          <mxGeometry x="1311.5" y="790" width="100" height="50" as="geometry" />
        </mxCell>
        <mxCell id="3Ar2WPhDcIFh1BwXJXv_-80" style="rounded=0;orthogonalLoop=1;jettySize=auto;html=1;exitX=0.5;exitY=0;exitDx=0;exitDy=0;entryX=0;entryY=0.5;entryDx=0;entryDy=0;endArrow=none;endFill=0;" edge="1" parent="1" source="3Ar2WPhDcIFh1BwXJXv_-81" target="3Ar2WPhDcIFh1BwXJXv_-75">
          <mxGeometry relative="1" as="geometry">
            <mxPoint x="1181" y="735" as="targetPoint" />
          </mxGeometry>
        </mxCell>
        <mxCell id="3Ar2WPhDcIFh1BwXJXv_-81" value="first name" style="ellipse;whiteSpace=wrap;html=1;" vertex="1" parent="1">
          <mxGeometry x="1161.5" y="790" width="100" height="50" as="geometry" />
        </mxCell>
        <mxCell id="3Ar2WPhDcIFh1BwXJXv_-82" style="rounded=0;orthogonalLoop=1;jettySize=auto;html=1;exitX=0.5;exitY=1;exitDx=0;exitDy=0;entryX=0.25;entryY=0;entryDx=0;entryDy=0;endArrow=none;endFill=0;" edge="1" parent="1" source="3Ar2WPhDcIFh1BwXJXv_-83" target="3Ar2WPhDcIFh1BwXJXv_-73">
          <mxGeometry relative="1" as="geometry" />
        </mxCell>
        <mxCell id="3Ar2WPhDcIFh1BwXJXv_-83" value="email address" style="ellipse;whiteSpace=wrap;html=1;" vertex="1" parent="1">
          <mxGeometry x="1009" y="465" width="140" height="80" as="geometry" />
        </mxCell>
        <mxCell id="3Ar2WPhDcIFh1BwXJXv_-84" style="rounded=0;orthogonalLoop=1;jettySize=auto;html=1;exitX=0.5;exitY=1;exitDx=0;exitDy=0;entryX=0.75;entryY=0;entryDx=0;entryDy=0;endArrow=none;endFill=0;" edge="1" parent="1" source="3Ar2WPhDcIFh1BwXJXv_-85" target="3Ar2WPhDcIFh1BwXJXv_-73">
          <mxGeometry relative="1" as="geometry" />
        </mxCell>
        <mxCell id="3Ar2WPhDcIFh1BwXJXv_-85" value="phone number" style="ellipse;whiteSpace=wrap;html=1;" vertex="1" parent="1">
          <mxGeometry x="1169" y="480" width="100" height="50" as="geometry" />
        </mxCell>
        <mxCell id="3Ar2WPhDcIFh1BwXJXv_-86" value="email address" style="ellipse;whiteSpace=wrap;html=1;" vertex="1" parent="1">
          <mxGeometry x="1029" y="480" width="100" height="50" as="geometry" />
        </mxCell>
        <mxCell id="3Ar2WPhDcIFh1BwXJXv_-87" style="rounded=0;orthogonalLoop=1;jettySize=auto;html=1;exitX=1;exitY=0.5;exitDx=0;exitDy=0;entryX=0;entryY=0.5;entryDx=0;entryDy=0;endArrow=none;endFill=0;" edge="1" parent="1" source="3Ar2WPhDcIFh1BwXJXv_-88" target="3Ar2WPhDcIFh1BwXJXv_-73">
          <mxGeometry relative="1" as="geometry" />
        </mxCell>
        <mxCell id="3Ar2WPhDcIFh1BwXJXv_-88" value="date of birth" style="ellipse;whiteSpace=wrap;html=1;" vertex="1" parent="1">
          <mxGeometry x="850" y="590" width="107" height="50" as="geometry" />
        </mxCell>
        <mxCell id="3Ar2WPhDcIFh1BwXJXv_-89" value="age" style="ellipse;whiteSpace=wrap;html=1;dashed=1;" vertex="1" parent="1">
          <mxGeometry x="926.5" y="695" width="100" height="50" as="geometry" />
        </mxCell>
        <mxCell id="3Ar2WPhDcIFh1BwXJXv_-90" style="rounded=0;orthogonalLoop=1;jettySize=auto;html=1;exitX=0.25;exitY=1;exitDx=0;exitDy=0;entryX=1;entryY=0.5;entryDx=0;entryDy=0;endArrow=none;endFill=0;" edge="1" parent="1" source="3Ar2WPhDcIFh1BwXJXv_-73" target="3Ar2WPhDcIFh1BwXJXv_-89">
          <mxGeometry relative="1" as="geometry">
            <mxPoint x="1069.5" y="720" as="sourcePoint" />
          </mxGeometry>
        </mxCell>
        <mxCell id="3Ar2WPhDcIFh1BwXJXv_-91" value="Books" style="rhombus;whiteSpace=wrap;html=1;fontStyle=1" vertex="1" parent="1">
          <mxGeometry x="1360" y="575" width="80" height="80" as="geometry" />
        </mxCell>
        <mxCell id="3Ar2WPhDcIFh1BwXJXv_-92" value="" style="endArrow=none;html=1;rounded=0;entryX=1;entryY=0.5;entryDx=0;entryDy=0;exitX=0;exitY=0.5;exitDx=0;exitDy=0;" edge="1" parent="1" source="3Ar2WPhDcIFh1BwXJXv_-49" target="3Ar2WPhDcIFh1BwXJXv_-91">
          <mxGeometry width="50" height="50" relative="1" as="geometry">
            <mxPoint x="1400" y="790" as="sourcePoint" />
            <mxPoint x="1450" y="740" as="targetPoint" />
          </mxGeometry>
        </mxCell>
        <mxCell id="3Ar2WPhDcIFh1BwXJXv_-93" value="&lt;b&gt;Assigned&lt;/b&gt;" style="rhombus;whiteSpace=wrap;html=1;" vertex="1" parent="1">
          <mxGeometry x="1760.2" y="390" width="80" height="80" as="geometry" />
        </mxCell>
        <mxCell id="3Ar2WPhDcIFh1BwXJXv_-94" value="" style="endArrow=none;html=1;rounded=0;entryX=0.5;entryY=1;entryDx=0;entryDy=0;" edge="1" parent="1" target="3Ar2WPhDcIFh1BwXJXv_-93">
          <mxGeometry width="50" height="50" relative="1" as="geometry">
            <mxPoint x="1800" y="590" as="sourcePoint" />
            <mxPoint x="1830" y="530" as="targetPoint" />
          </mxGeometry>
        </mxCell>
        <mxCell id="3Ar2WPhDcIFh1BwXJXv_-95" value="" style="endArrow=none;html=1;rounded=0;entryX=1;entryY=0.5;entryDx=0;entryDy=0;exitX=0;exitY=0.5;exitDx=0;exitDy=0;" edge="1" parent="1" source="3Ar2WPhDcIFh1BwXJXv_-27" target="3Ar2WPhDcIFh1BwXJXv_-93">
          <mxGeometry width="50" height="50" relative="1" as="geometry">
            <mxPoint x="1809" y="600" as="sourcePoint" />
            <mxPoint x="1809" y="500" as="targetPoint" />
          </mxGeometry>
        </mxCell>
        <mxCell id="3Ar2WPhDcIFh1BwXJXv_-96" value="" style="endArrow=none;html=1;rounded=0;exitX=0.5;exitY=1;exitDx=0;exitDy=0;entryX=0.75;entryY=0;entryDx=0;entryDy=0;" edge="1" parent="1" source="3Ar2WPhDcIFh1BwXJXv_-62" target="3Ar2WPhDcIFh1BwXJXv_-50">
          <mxGeometry width="50" height="50" relative="1" as="geometry">
            <mxPoint x="1670" y="810" as="sourcePoint" />
            <mxPoint x="1720" y="760" as="targetPoint" />
          </mxGeometry>
        </mxCell>
        <mxCell id="3Ar2WPhDcIFh1BwXJXv_-98" value="" style="endArrow=none;html=1;rounded=0;exitX=1;exitY=1;exitDx=0;exitDy=0;entryX=0.25;entryY=0;entryDx=0;entryDy=0;" edge="1" parent="1" source="3Ar2WPhDcIFh1BwXJXv_-58" target="3Ar2WPhDcIFh1BwXJXv_-50">
          <mxGeometry width="50" height="50" relative="1" as="geometry">
            <mxPoint x="1710" y="750" as="sourcePoint" />
            <mxPoint x="1710" y="765" as="targetPoint" />
          </mxGeometry>
        </mxCell>
        <mxCell id="3Ar2WPhDcIFh1BwXJXv_-102" value="" style="endArrow=none;html=1;rounded=0;exitX=0.33;exitY=0;exitDx=0;exitDy=0;entryX=0.917;entryY=1.018;entryDx=0;entryDy=0;exitPerimeter=0;entryPerimeter=0;" edge="1" parent="1" source="3Ar2WPhDcIFh1BwXJXv_-63" target="3Ar2WPhDcIFh1BwXJXv_-50">
          <mxGeometry width="50" height="50" relative="1" as="geometry">
            <mxPoint x="1619" y="817" as="sourcePoint" />
            <mxPoint x="1660" y="812" as="targetPoint" />
          </mxGeometry>
        </mxCell>
        <mxCell id="3Ar2WPhDcIFh1BwXJXv_-103" value="&lt;b&gt;Qualified&lt;/b&gt;" style="rhombus;whiteSpace=wrap;html=1;" vertex="1" parent="1">
          <mxGeometry x="2078.62" y="745" width="60" height="60" as="geometry" />
        </mxCell>
        <mxCell id="3Ar2WPhDcIFh1BwXJXv_-104" value="" style="endArrow=none;html=1;rounded=0;entryX=0.5;entryY=1;entryDx=0;entryDy=0;exitX=0.5;exitY=0;exitDx=0;exitDy=0;" edge="1" parent="1" source="3Ar2WPhDcIFh1BwXJXv_-103" target="3Ar2WPhDcIFh1BwXJXv_-42">
          <mxGeometry width="50" height="50" relative="1" as="geometry">
            <mxPoint x="1960" y="700" as="sourcePoint" />
            <mxPoint x="2010" y="650" as="targetPoint" />
          </mxGeometry>
        </mxCell>
        <mxCell id="3Ar2WPhDcIFh1BwXJXv_-106" value="" style="endArrow=none;html=1;rounded=0;entryX=1;entryY=0.5;entryDx=0;entryDy=0;exitX=0;exitY=0.5;exitDx=0;exitDy=0;" edge="1" parent="1" source="3Ar2WPhDcIFh1BwXJXv_-103" target="3Ar2WPhDcIFh1BwXJXv_-52">
          <mxGeometry width="50" height="50" relative="1" as="geometry">
            <mxPoint x="2119" y="710" as="sourcePoint" />
            <mxPoint x="2119" y="610" as="targetPoint" />
          </mxGeometry>
        </mxCell>
        <mxCell id="3Ar2WPhDcIFh1BwXJXv_-107" value="Vehicle type" style="ellipse;whiteSpace=wrap;html=1;" vertex="1" parent="1">
          <mxGeometry x="1331.5" y="510" width="60" height="40" as="geometry" />
        </mxCell>
        <mxCell id="3Ar2WPhDcIFh1BwXJXv_-108" value="" style="endArrow=none;html=1;rounded=0;entryX=0.5;entryY=1;entryDx=0;entryDy=0;exitX=0.5;exitY=0;exitDx=0;exitDy=0;" edge="1" parent="1" source="3Ar2WPhDcIFh1BwXJXv_-91" target="3Ar2WPhDcIFh1BwXJXv_-107">
          <mxGeometry width="50" height="50" relative="1" as="geometry">
            <mxPoint x="1440" y="690" as="sourcePoint" />
            <mxPoint x="1490" y="640" as="targetPoint" />
          </mxGeometry>
        </mxCell>
        <mxCell id="3Ar2WPhDcIFh1BwXJXv_-109" value="Passed Theoretical" style="ellipse;whiteSpace=wrap;html=1;" vertex="1" parent="1">
          <mxGeometry x="1411.5" y="510" width="78.5" height="40" as="geometry" />
        </mxCell>
        <mxCell id="3Ar2WPhDcIFh1BwXJXv_-110" value="" style="endArrow=none;html=1;rounded=0;entryX=0.5;entryY=1;entryDx=0;entryDy=0;exitX=0.5;exitY=0;exitDx=0;exitDy=0;" edge="1" parent="1" source="3Ar2WPhDcIFh1BwXJXv_-91" target="3Ar2WPhDcIFh1BwXJXv_-109">
          <mxGeometry width="50" height="50" relative="1" as="geometry">
            <mxPoint x="1410" y="585" as="sourcePoint" />
            <mxPoint x="1380" y="560" as="targetPoint" />
          </mxGeometry>
        </mxCell>
        <mxCell id="3Ar2WPhDcIFh1BwXJXv_-111" value="&lt;b&gt;Provides Overview&lt;/b&gt;" style="rhombus;whiteSpace=wrap;html=1;" vertex="1" parent="1">
          <mxGeometry x="2470" y="390" width="80" height="80" as="geometry" />
        </mxCell>
        <mxCell id="3Ar2WPhDcIFh1BwXJXv_-113" value="" style="endArrow=none;html=1;rounded=0;entryX=0;entryY=0.5;entryDx=0;entryDy=0;exitX=1;exitY=0.5;exitDx=0;exitDy=0;" edge="1" parent="1" source="3Ar2WPhDcIFh1BwXJXv_-29" target="3Ar2WPhDcIFh1BwXJXv_-111">
          <mxGeometry width="50" height="50" relative="1" as="geometry">
            <mxPoint x="2257" y="360" as="sourcePoint" />
            <mxPoint x="2317" y="420" as="targetPoint" />
          </mxGeometry>
        </mxCell>
        <mxCell id="3Ar2WPhDcIFh1BwXJXv_-114" value="&lt;b&gt;Belongs&lt;/b&gt;" style="rhombus;whiteSpace=wrap;html=1;" vertex="1" parent="1">
          <mxGeometry x="2560" y="240" width="60" height="60" as="geometry" />
        </mxCell>
        <mxCell id="3Ar2WPhDcIFh1BwXJXv_-115" value="Branch" style="rounded=0;whiteSpace=wrap;html=1;" vertex="1" parent="1">
          <mxGeometry x="2950" y="247.5" width="80" height="45" as="geometry" />
        </mxCell>
        <mxCell id="3Ar2WPhDcIFh1BwXJXv_-116" style="edgeStyle=orthogonalEdgeStyle;rounded=0;orthogonalLoop=1;jettySize=auto;html=1;exitX=1;exitY=0.5;exitDx=0;exitDy=0;endArrow=none;endFill=0;entryX=0;entryY=0.5;entryDx=0;entryDy=0;" edge="1" parent="1" source="3Ar2WPhDcIFh1BwXJXv_-114" target="3Ar2WPhDcIFh1BwXJXv_-115">
          <mxGeometry relative="1" as="geometry">
            <mxPoint x="2570" y="280" as="targetPoint" />
            <mxPoint x="2352" y="280" as="sourcePoint" />
          </mxGeometry>
        </mxCell>
        <mxCell id="3Ar2WPhDcIFh1BwXJXv_-118" value="Alken" style="rounded=0;whiteSpace=wrap;html=1;" vertex="1" parent="1">
          <mxGeometry x="2810" y="390" width="80" height="40" as="geometry" />
        </mxCell>
        <mxCell id="3Ar2WPhDcIFh1BwXJXv_-119" value="Tienen" style="rounded=0;whiteSpace=wrap;html=1;" vertex="1" parent="1">
          <mxGeometry x="2897.0000000000005" y="390" width="78.25" height="40" as="geometry" />
        </mxCell>
        <mxCell id="3Ar2WPhDcIFh1BwXJXv_-120" value="Sint-Niklaas" style="rounded=0;whiteSpace=wrap;html=1;" vertex="1" parent="1">
          <mxGeometry x="3090" y="390" width="83.25" height="40" as="geometry" />
        </mxCell>
        <mxCell id="3Ar2WPhDcIFh1BwXJXv_-121" value="D" style="ellipse;whiteSpace=wrap;html=1;aspect=fixed;" vertex="1" parent="1">
          <mxGeometry x="2970" y="310" width="40" height="40" as="geometry" />
        </mxCell>
        <mxCell id="3Ar2WPhDcIFh1BwXJXv_-122" value="" style="endArrow=none;html=1;rounded=0;entryX=0.5;entryY=0;entryDx=0;entryDy=0;shape=link;exitX=0.5;exitY=1;exitDx=0;exitDy=0;" edge="1" parent="1" target="3Ar2WPhDcIFh1BwXJXv_-121" source="3Ar2WPhDcIFh1BwXJXv_-115">
          <mxGeometry width="50" height="50" relative="1" as="geometry">
            <mxPoint x="2988" y="300" as="sourcePoint" />
            <mxPoint x="3061.38" y="345" as="targetPoint" />
          </mxGeometry>
        </mxCell>
        <mxCell id="3Ar2WPhDcIFh1BwXJXv_-123" value="" style="endArrow=none;html=1;rounded=0;entryX=0;entryY=0.5;entryDx=0;entryDy=0;exitX=1;exitY=0;exitDx=0;exitDy=0;" edge="1" parent="1" source="3Ar2WPhDcIFh1BwXJXv_-118" target="3Ar2WPhDcIFh1BwXJXv_-121">
          <mxGeometry width="50" height="50" relative="1" as="geometry">
            <mxPoint x="2990.69" y="410" as="sourcePoint" />
            <mxPoint x="3040.69" y="360" as="targetPoint" />
          </mxGeometry>
        </mxCell>
        <mxCell id="3Ar2WPhDcIFh1BwXJXv_-124" value="" style="endArrow=none;html=1;rounded=0;entryX=0;entryY=0;entryDx=0;entryDy=0;exitX=1;exitY=0.5;exitDx=0;exitDy=0;" edge="1" parent="1" source="3Ar2WPhDcIFh1BwXJXv_-121" target="3Ar2WPhDcIFh1BwXJXv_-120">
          <mxGeometry width="50" height="50" relative="1" as="geometry">
            <mxPoint x="2919.69" y="400" as="sourcePoint" />
            <mxPoint x="2977.69" y="340" as="targetPoint" />
          </mxGeometry>
        </mxCell>
        <mxCell id="3Ar2WPhDcIFh1BwXJXv_-125" value="" style="endArrow=none;html=1;rounded=0;entryX=0.5;entryY=1;entryDx=0;entryDy=0;exitX=0.5;exitY=0;exitDx=0;exitDy=0;" edge="1" parent="1" source="3Ar2WPhDcIFh1BwXJXv_-119" target="3Ar2WPhDcIFh1BwXJXv_-121">
          <mxGeometry width="50" height="50" relative="1" as="geometry">
            <mxPoint x="2929.69" y="410" as="sourcePoint" />
            <mxPoint x="2987.69" y="350" as="targetPoint" />
          </mxGeometry>
        </mxCell>
        <mxCell id="3Ar2WPhDcIFh1BwXJXv_-126" value="Ghent" style="rounded=0;whiteSpace=wrap;html=1;" vertex="1" parent="1">
          <mxGeometry x="3000.0000000000005" y="390" width="78.25" height="40" as="geometry" />
        </mxCell>
        <mxCell id="3Ar2WPhDcIFh1BwXJXv_-127" value="" style="endArrow=none;html=1;rounded=0;entryX=0.5;entryY=1;entryDx=0;entryDy=0;exitX=0.5;exitY=0;exitDx=0;exitDy=0;" edge="1" parent="1" source="3Ar2WPhDcIFh1BwXJXv_-126" target="3Ar2WPhDcIFh1BwXJXv_-121">
          <mxGeometry width="50" height="50" relative="1" as="geometry">
            <mxPoint x="3022.69" y="410" as="sourcePoint" />
            <mxPoint x="3083" y="350" as="targetPoint" />
          </mxGeometry>
        </mxCell>
        <mxCell id="3Ar2WPhDcIFh1BwXJXv_-128" value="Haasrode" style="rounded=0;whiteSpace=wrap;html=1;" vertex="1" parent="1">
          <mxGeometry x="2950.0000000000005" y="440" width="78.25" height="40" as="geometry" />
        </mxCell>
        <mxCell id="3Ar2WPhDcIFh1BwXJXv_-129" value="" style="endArrow=none;html=1;rounded=0;entryX=0.5;entryY=1;entryDx=0;entryDy=0;exitX=0.5;exitY=0;exitDx=0;exitDy=0;" edge="1" parent="1" source="3Ar2WPhDcIFh1BwXJXv_-128" target="3Ar2WPhDcIFh1BwXJXv_-121">
          <mxGeometry width="50" height="50" relative="1" as="geometry">
            <mxPoint x="3049" y="400" as="sourcePoint" />
            <mxPoint x="3000" y="360" as="targetPoint" />
          </mxGeometry>
        </mxCell>
        <mxCell id="3Ar2WPhDcIFh1BwXJXv_-131" value="" style="endArrow=none;html=1;rounded=0;exitX=0;exitY=1;exitDx=0;exitDy=0;" edge="1" parent="1" source="3Ar2WPhDcIFh1BwXJXv_-115">
          <mxGeometry width="50" height="50" relative="1" as="geometry">
            <mxPoint x="2730" y="440" as="sourcePoint" />
            <mxPoint x="2550" y="430" as="targetPoint" />
          </mxGeometry>
        </mxCell>
        <mxCell id="3Ar2WPhDcIFh1BwXJXv_-132" value="HQ" style="ellipse;whiteSpace=wrap;html=1;" vertex="1" parent="1">
          <mxGeometry x="2964.13" y="500" width="50" height="30" as="geometry" />
        </mxCell>
        <mxCell id="3Ar2WPhDcIFh1BwXJXv_-133" value="" style="endArrow=none;html=1;rounded=0;entryX=0.5;entryY=1;entryDx=0;entryDy=0;exitX=0.5;exitY=0;exitDx=0;exitDy=0;" edge="1" parent="1" source="3Ar2WPhDcIFh1BwXJXv_-132" target="3Ar2WPhDcIFh1BwXJXv_-128">
          <mxGeometry width="50" height="50" relative="1" as="geometry">
            <mxPoint x="2930" y="540" as="sourcePoint" />
            <mxPoint x="2980" y="490" as="targetPoint" />
          </mxGeometry>
        </mxCell>
      </root>
    </mxGraphModel>
  </diagram>
</mxfile>
